<svg xmlns="http://www.w3.org/2000/svg" viewBox="0 0 48.3 45.21"><defs><style>.cls-1{fill:#afdcea;}.cls-2{fill:#81be7b;}.cls-3{fill:#9680b9;}</style></defs><g id="Layer_2" data-name="Layer 2"><g id="Layer_1-2" data-name="Layer 1"><path class="cls-1" d="M11.55,10.88a10.37,10.37,0,0,0,3,7,10.46,10.46,0,0,0,7,3,9.47,9.47,0,0,0-3-8A9.16,9.16,0,0,0,11.55,10.88Z"/><path class="cls-1" d="M11.56,10.38a10.41,10.41,0,0,0,7.2-2.48,10.45,10.45,0,0,0,3.5-6.77,9.46,9.46,0,0,0-8.2,2.42A9.21,9.21,0,0,0,11.56,10.38Z"/><path class="cls-1" d="M11,10.41a10.47,10.47,0,0,0-3-7,10.47,10.47,0,0,0-7-3,9.46,9.46,0,0,0,3,8A9.11,9.11,0,0,0,11,10.41Z"/><path class="cls-1" d="M11,10.82a10.39,10.39,0,0,0-7.2,2.48,10.45,10.45,0,0,0-3.5,6.77,9.45,9.45,0,0,0,8.19-2.42A9.19,9.19,0,0,0,11,10.82Z"/><path class="cls-2" d="M11.27,35.21a10.25,10.25,0,0,0,10,10,9.46,9.46,0,0,0-3-8A9.15,9.15,0,0,0,11.27,35.21Z"/><path class="cls-2" d="M11.28,34.71A10.26,10.26,0,0,0,22,25.46a9.42,9.42,0,0,0-8.19,2.41A9.22,9.22,0,0,0,11.28,34.71Z"/><path class="cls-2" d="M10.71,34.74a10.42,10.42,0,0,0-3-7,10.46,10.46,0,0,0-7-3,9.46,9.46,0,0,0,3,8A9.16,9.16,0,0,0,10.71,34.74Z"/><path class="cls-2" d="M10.7,35.14A10.26,10.26,0,0,0,0,44.39,9.44,9.44,0,0,0,8.2,42,9.21,9.21,0,0,0,10.7,35.14Z"/><path class="cls-3" d="M37.58,10.47a10.47,10.47,0,0,0,3,7,10.49,10.49,0,0,0,7,3,9.42,9.42,0,0,0-3-8A9.15,9.15,0,0,0,37.58,10.47Z"/><path class="cls-3" d="M37.6,10a10.49,10.49,0,0,0,7.2-2.49A10.44,10.44,0,0,0,48.3.72a9.44,9.44,0,0,0-8.2,2.41A9.15,9.15,0,0,0,37.6,10Z"/><path class="cls-3" d="M37,10a10.47,10.47,0,0,0-3-7,10.47,10.47,0,0,0-7-3,9.43,9.43,0,0,0,3,8A9.15,9.15,0,0,0,37,10Z"/><path class="cls-3" d="M37,10.4a10.25,10.25,0,0,0-10.69,9.25,9.43,9.43,0,0,0,8.19-2.41A9.12,9.12,0,0,0,37,10.4Z"/></g></g></svg>