<svg xmlns="http://www.w3.org/2000/svg" viewBox="0 0 33.02 56.15"><defs><style>.cls-1{fill:#f17456;}.cls-2{fill:none;stroke:#f17456;stroke-miterlimit:10;stroke-width:3px;}</style></defs><g id="Layer_2" data-name="Layer 2"><g id="Layer_1-2" data-name="Layer 1"><path class="cls-1" d="M0,20.46V56.15H32.94V20.46Zm6.93,3.86h7.64V35H6.94Zm7.73,26.52H7V40.19h7.65Zm4.57-26.52h7.64V35H19.24ZM27,50.84H19.32V40.19H27Z"/><path class="cls-1" d="M26.56,17.49c-.41-.54-.83-1.1-1.24-1.67s-.93-1.29-1.39-2c-.61-.87-1.22-1.77-1.82-2.69-1.37-2.09-2.61-4.13-3.73-6.1h0c-.38-.66-.73-1.3-1.08-1.94L15.38,5.66,9.12,13.88l-1.21,1.6c-.73.95-1.46,1.91-2.17,2.86L3.36,21.46H29.71C28.67,20.22,27.62,18.89,26.56,17.49Zm-11.93,0c0-2,0-3.92,0-5.88a2.14,2.14,0,0,1,2.22-1.38,2.15,2.15,0,0,1,2,1.25l.12,6Z"/><path class="cls-2" d="M0,20.35l2.47,0,5.43-5.05V13l1.82-.16a26.88,26.88,0,0,0,5.16-7.14,25.69,25.69,0,0,0,1.64-4.17l1.22,0A22.66,22.66,0,0,0,18.81,5.4a22.45,22.45,0,0,0,4.68,7.43l1.83.16v2.33l5.22,4.95,2.46,0"/></g></g></svg>