<?xml version="1.0" encoding="utf-8"?>
<!-- Generator: Adobe Illustrator 27.0.0, SVG Export Plug-In . SVG Version: 6.00 Build 0)  -->
<svg version="1.1" id="Laag_1" xmlns="http://www.w3.org/2000/svg" xmlns:xlink="http://www.w3.org/1999/xlink" x="0px" y="0px"
	 viewBox="0 0 198.2 76.2" style="enable-background:new 0 0 198.2 76.2;" xml:space="preserve">
<style type="text/css">
	.st0{fill:#F0E39F;}
	.st1{fill:#82BF7C;}
	.st2{fill:#EE7659;}
	.st3{fill:#9680B9;}
	.st4{fill:#B0DCEA;}
	.st5{fill:none;stroke:#F0E39F;stroke-width:7.21;stroke-miterlimit:10;}
	.st6{fill:none;stroke:#010101;stroke-width:0.81;stroke-miterlimit:10;}
	.st7{fill:#F0E39F;stroke:#B0DCEA;stroke-width:2.22;stroke-miterlimit:10;}
	.st8{fill:none;stroke:#010101;stroke-width:3.63;stroke-miterlimit:10;}
	.st9{fill:none;stroke:#82BF7C;stroke-width:1.81;stroke-miterlimit:10;}
</style>
<g id="Layer_2">
	<g id="Layer_1-2">
		<path class="st0" d="M128.5,39.7l-0.3,0.5l-7.8,13.4l-12.1,21c-0.5,0.8-1.6,1.1-2.4,0.6c-0.3-0.2-0.5-0.4-0.6-0.6l-12.2-21
			l-7.8-13.5l-0.3-0.5l8.5,0.8c3.3,2.1,6.8,3.8,10.4,5.1c0.9,0.3,1.8,0.4,2.7,0.4c0.9,0,1.8-0.2,2.7-0.4c4.3-1.6,8.5-3.6,12.4-6
			L128.5,39.7z"/>
		<path class="st1" d="M28.2,59.8V16.6c0-0.6,0.4-1,1-1h15.3c7.7,0,11.9,7.1,11.9,15.3s-4.3,14.9-11.9,14.9h-6.3c-0.6,0-1,0.4-1,1
			v13c0,0.6-0.4,1-1,1h-7C28.6,60.8,28.2,60.4,28.2,59.8C28.2,59.8,28.2,59.8,28.2,59.8z M43.4,36.7c2.4,0,3.9-2.6,3.9-5.8
			c0-3.4-1.6-6-3.9-6h-5.2c-0.6,0-1,0.4-1,1v9.7c0,0.6,0.4,1,1,1L43.4,36.7z"/>
		<path class="st2" d="M84.7,53.5v3.9c0,1.5-1.2,2.8-2.8,2.8l0,0H62.6c-1.5,0-2.8-1.2-2.8-2.8c0,0,0,0,0,0V17.6
			c0-1.5,1.2-2.8,2.8-2.8c0,0,0,0,0,0H66c1.5,0,2.8,1.2,2.8,2.8c0,0,0,0,0,0v30.3c0,1.5,1.2,2.8,2.8,2.8h10.3
			C83.4,50.7,84.7,51.9,84.7,53.5C84.7,53.5,84.7,53.5,84.7,53.5z"/>
		<path class="st3" d="M159.2,43.1c-0.7,0.4-1.1,1.2-0.9,2c0.8,3.8,2.4,6.3,5,6.3c0.7,0,1.5-0.2,2.1-0.6c0.9-0.4,2-0.1,2.4,0.8
			c0,0.1,0.1,0.1,0.1,0.2l1.6,4.2c0.3,0.7,0.1,1.6-0.5,2.1c-2,1.8-4.7,2.8-7.4,2.8c-7.9,0-10.8-9.6-11.6-14.9
			c-0.1-0.9-0.9-1.5-1.8-1.5l0,0c-1,0-1.8,0.8-1.8,1.8v12.1c0,1-0.8,1.8-1.8,1.8h-5.3c-1,0-1.8-0.8-1.8-1.8V16.7
			c0-1,0.8-1.8,1.8-1.8c0,0,0,0,0,0h14.5c7.7,0,11.9,7,11.9,15.3C165.7,36.1,163.3,40.9,159.2,43.1z M152.7,35.8c2.4,0,4-2.4,4-5.6
			s-1.5-5.7-4-5.7h-4.5c-1,0-1.8,0.8-1.8,1.8V34c0,1,0.8,1.8,1.8,1.8L152.7,35.8z"/>
		<path class="st4" d="M173.8,57.5v-40c0-1.5,1.2-2.6,2.6-2.6h19.1c1.5,0,2.6,1.2,2.6,2.6v4.1c0,1.5-1.2,2.6-2.6,2.6h-10.1
			c-1.5,0-2.7,1.2-2.7,2.6c0,0,0,0,0,0.1v3.7c0,1.5,1.2,2.6,2.6,2.7h8.1c1.5,0,2.6,1.2,2.6,2.6v3.6c0,1.5-1.2,2.6-2.6,2.6h-8.1
			c-1.5,0-2.6,1.2-2.6,2.7v3.2c0,1.5,1.2,2.6,2.6,2.6h10.1c1.5,0,2.6,1.2,2.6,2.7v4.2c0,1.5-1.2,2.6-2.6,2.7h-19.1
			C174.9,60.2,173.8,59,173.8,57.5C173.8,57.5,173.8,57.5,173.8,57.5z"/>
		<circle class="st5" cx="106.7" cy="32.4" r="20.7"/>
		<line class="st6" x1="118.7" y1="39.7" x2="94.7" y2="24.5"/>
		<line class="st6" x1="114.3" y1="20.1" x2="99.2" y2="44.1"/>
		<line class="st6" x1="103.7" y1="17.9" x2="108.9" y2="45.8"/>
		<line class="st6" x1="92.7" y1="34.4" x2="120.7" y2="29.9"/>
		<circle class="st7" cx="106.7" cy="32.1" r="3.5"/>
		<circle class="st8" cx="106.7" cy="32.1" r="15.6"/>
		<circle class="st9" cx="106.7" cy="32.1" r="13.8"/>
		<path class="st3" d="M6.6,0.8l14.6,14.6c1.1,1.1,1.1,2.9,0,4l-1.7,1.7c-1.1,1.1-2.9,1.1-4,0L0.8,6.6c-1.1-1.1-1.1-2.9,0-4l1.7-1.7
			C3.7-0.3,5.5-0.3,6.6,0.8z"/>
		<path class="st3" d="M21.2,6.6L6.6,21.2c-1.1,1.1-2.9,1.1-4,0l-1.7-1.7c-1.1-1.1-1.1-2.9,0-4L15.4,0.8c1.1-1.1,2.9-1.1,4,0
			l1.7,1.7C22.3,3.7,22.3,5.5,21.2,6.6z"/>
		<path class="st4" d="M6.6,27.9l14.6,14.6c1.1,1.1,1.1,2.9,0,4l-1.7,1.7c-1.1,1.1-2.9,1.1-4,0L0.8,33.7c-1.1-1.1-1.1-2.9,0-4
			l1.7-1.7C3.7,26.8,5.5,26.8,6.6,27.9z"/>
		<path class="st4" d="M21.2,33.7L6.6,48.3c-1.1,1.1-2.9,1.1-4,0l-1.7-1.7c-1.1-1.1-1.1-2.9,0-4l14.6-14.6c1.1-1.1,2.9-1.1,4,0
			l1.7,1.7C22.3,30.8,22.3,32.6,21.2,33.7z"/>
		<path class="st0" d="M6.6,55.1l14.6,14.6c1.1,1.1,1.1,2.9,0,4l-1.7,1.7c-1.1,1.1-2.9,1.1-4,0L0.8,60.8c-1.1-1.1-1.1-2.9,0-4
			l1.7-1.7C3.7,53.9,5.5,53.9,6.6,55.1z"/>
		<path class="st0" d="M21.2,60.8L6.6,75.4c-1.1,1.1-2.9,1.1-4,0l-1.7-1.7c-1.1-1.1-1.1-2.9,0-4l14.6-14.6c1.1-1.1,2.9-1.1,4,0
			l1.7,1.7C22.3,57.9,22.3,59.7,21.2,60.8z"/>
	</g>
</g>
</svg>
