<svg xmlns="http://www.w3.org/2000/svg" viewBox="0 0 21.98 20.47"><defs><style>.cls-1{fill:#afdcea;}</style></defs><g id="Layer_2" data-name="Layer 2"><g id="Layer_1-2" data-name="Layer 1"><path class="cls-1" d="M11.27,10.47a10.47,10.47,0,0,0,3,7,10.46,10.46,0,0,0,7,3,9.46,9.46,0,0,0-3-8A9.15,9.15,0,0,0,11.27,10.47Z"/><path class="cls-1" d="M11.28,10a10.48,10.48,0,0,0,7.2-2.49A10.44,10.44,0,0,0,22,.72a9.42,9.42,0,0,0-8.19,2.41A9.22,9.22,0,0,0,11.28,10Z"/><path class="cls-1" d="M10.71,10a10.42,10.42,0,0,0-3-7,10.46,10.46,0,0,0-7-3,9.47,9.47,0,0,0,3,8A9.16,9.16,0,0,0,10.71,10Z"/><path class="cls-1" d="M10.7,10.4A10.26,10.26,0,0,0,0,19.65a9.44,9.44,0,0,0,8.2-2.41A9.21,9.21,0,0,0,10.7,10.4Z"/></g></g></svg>