<svg xmlns="http://www.w3.org/2000/svg" viewBox="0 0 53.97 54.53"><defs><style>.cls-1{fill:#f17456;}.cls-2{fill:none;stroke:#f17456;stroke-linecap:round;stroke-linejoin:round;stroke-width:3px;}</style></defs><g id="Layer_2" data-name="Layer 2"><g id="Layer_1-2" data-name="Layer 1"><path class="cls-1" d="M31.61,0A11.66,11.66,0,1,0,43.27,11.66,11.67,11.67,0,0,0,31.61,0Zm0,16.68a4.92,4.92,0,1,1,4.67-3.43A4.91,4.91,0,0,1,31.61,16.68Z"/><path class="cls-1" d="M41.92,15.59l-3,5.13L33,31.08a1.57,1.57,0,0,1-2.7,0l-6-10.36-3-5.13a1.56,1.56,0,0,1,1.34-2.34h4.29a4.9,4.9,0,0,0,9.35,0h4.29A1.56,1.56,0,0,1,41.92,15.59Z"/><path class="cls-2" d="M32,31.71l-15.42-.15a4.75,4.75,0,0,0,.34,9.28l31.42-.43a4.82,4.82,0,0,1,1.37,9.15l-38.75-.23"/><circle class="cls-1" cx="5.11" cy="49.42" r="5.11"/></g></g></svg>