<svg xmlns="http://www.w3.org/2000/svg" viewBox="0 0 23.63 20.07"><defs><style>.cls-1{opacity:0.5;}.cls-2{fill:#fff;}.cls-3,.cls-4{fill:none;stroke-linecap:round;stroke-linejoin:round;stroke-width:1.69px;}.cls-3{stroke:#000;}.cls-4{stroke:#fff;}</style></defs><g id="Layer_2" data-name="Layer 2"><g id="Layer_1-2" data-name="Layer 1"><g class="cls-1"><path d="M5.21,14.38H.85A10.89,10.89,0,0,1,0,10.15,10.71,10.71,0,0,1,.85,6H5.21Z"/></g><path class="cls-2" d="M5.21,14.38H.85A10.89,10.89,0,0,1,0,10.15,10.71,10.71,0,0,1,.85,6H5.21Z"/><g class="cls-1"><path d="M6.77,5.75,15.06,0V20.07q-4.16-2.76-8.29-5.54Z"/></g><path class="cls-2" d="M6.77,5.75,15.06,0V20.07q-4.16-2.76-8.29-5.54Z"/><g class="cls-1"><path class="cls-3" d="M19.19,1a12,12,0,0,1,3.59,8.25,12.07,12.07,0,0,1-3.5,8.53"/></g><path class="cls-4" d="M19.19,1a12,12,0,0,1,3.59,8.25,12.07,12.07,0,0,1-3.5,8.53"/><g class="cls-1"><path class="cls-3" d="M17.29,5A6.41,6.41,0,0,1,19,9.26a6.51,6.51,0,0,1-1.67,4.4"/></g><path class="cls-4" d="M17.29,5A6.41,6.41,0,0,1,19,9.26a6.51,6.51,0,0,1-1.67,4.4"/></g></g></svg>