<svg xmlns="http://www.w3.org/2000/svg" viewBox="0 0 49.76 44.37"><defs><style>.cls-1{opacity:0.5;}.cls-2,.cls-3{fill:none;stroke-linecap:round;stroke-linejoin:round;stroke-width:4px;}.cls-2{stroke:#000;}.cls-3{stroke:#f17456;}</style></defs><g id="Layer_2" data-name="Layer 2"><g id="Layer_1-2" data-name="Layer 1"><g class="cls-1"><path class="cls-2" d="M36.72,33.54C41.14,29,49.55,20.3,47.42,11.32c-.15-.65-1.65-6.58-6.82-8.56-4.79-1.84-11,.36-15.22,5.75C20.83,2.89,14.2.71,9.18,2.76s-6.67,7.92-6.82,8.56C.12,20.53,8.94,29.4,13.06,33.54a47.55,47.55,0,0,0,12.18,8.83A50.46,50.46,0,0,0,36.72,33.54Z"/></g><path class="cls-3" d="M36.72,33.54C41.14,29,49.55,20.3,47.42,11.32c-.15-.65-1.65-6.58-6.82-8.56-4.79-1.84-11,.36-15.22,5.75C20.83,2.89,14.2.71,9.18,2.76s-6.67,7.92-6.82,8.56C.12,20.53,8.94,29.4,13.06,33.54a47.55,47.55,0,0,0,12.18,8.83A50.46,50.46,0,0,0,36.72,33.54Z"/></g></g></svg>