<svg xmlns="http://www.w3.org/2000/svg" viewBox="0 0 31.7 45.38"><defs><style>.cls-1{fill:#6d6f71;}</style></defs><g id="Layer_2" data-name="Layer 2"><g id="Layer_1-2" data-name="Layer 1"><path class="cls-1" d="M15.85,0A15.85,15.85,0,0,0,0,15.85,15.47,15.47,0,0,0,.15,18c0,.11,0,.23.05.34a15.85,15.85,0,0,0,31.3,0c0-.11,0-.23.05-.34a15.47,15.47,0,0,0,.15-2.16A15.85,15.85,0,0,0,15.85,0Zm0,22.66A6.66,6.66,0,1,1,22.2,18,6.66,6.66,0,0,1,15.85,22.66Z"/><path class="cls-1" d="M31.7,18l-.2.34-5.68,9.82-10,17.21-10-17.21L.2,18.35,0,18H9.5a6.66,6.66,0,0,0,12.7,0Z"/></g></g></svg>