<svg xmlns="http://www.w3.org/2000/svg" viewBox="0 0 52.25 60.34"><defs><style>.cls-1{fill:#f17456;}.cls-2{fill:none;stroke:#f17456;stroke-linecap:round;stroke-linejoin:round;stroke-width:3px;}</style></defs><g id="Layer_2" data-name="Layer 2"><g id="Layer_1-2" data-name="Layer 1"><path class="cls-1" d="M33.13,52.64a3.28,3.28,0,0,1-.57,2.1A4.91,4.91,0,0,1,31.27,56a9.18,9.18,0,0,1-3.67,1.39,12.87,12.87,0,0,1-3.56.08,8.33,8.33,0,0,1-3.79-1.31,4.47,4.47,0,0,1-1.08-1,3.15,3.15,0,0,1-.52-2.33Z"/><path class="cls-1" d="M41.09,24.1c-.71-6-6.72-13.08-15.17-13.19s-14.73,7-15.57,13c-.59,4.24,1.44,8.27,3.17,11.71,1.88,3.75,4.86,5.49,5.65,9.92a13.78,13.78,0,0,1,.09,4.26H32.61a11.91,11.91,0,0,1,0-4.76c.85-4.07,2.86-4.49,5.45-9.92C39.84,31.5,41.55,27.92,41.09,24.1ZM28.43,37.05a.92.92,0,0,1,0,1.32l-.29.29a.94.94,0,0,1-1.32,0L25.7,37.55l-1.11,1.11a.94.94,0,0,1-1.32,0L23,38.37a.92.92,0,0,1,0-1.32l1.11-1.12L23,34.81a.92.92,0,0,1,0-1.32l.29-.29a.92.92,0,0,1,1.32,0l1.11,1.11,1.12-1.11a.92.92,0,0,1,1.32,0l.29.29a.92.92,0,0,1,0,1.32l-1.11,1.12Zm0-7a.92.92,0,0,1,0,1.32l-.29.3a.94.94,0,0,1-1.32,0L25.7,30.59l-1.11,1.12a.94.94,0,0,1-1.32,0l-.29-.3a.92.92,0,0,1,0-1.32L24.09,29,23,27.85a.91.91,0,0,1,0-1.31l.29-.3a.92.92,0,0,1,1.32,0l1.11,1.11,1.12-1.11a.92.92,0,0,1,1.32,0l.29.3a.91.91,0,0,1,0,1.31L27.32,29Zm0-7a.91.91,0,0,1,0,1.31l-.29.3a.92.92,0,0,1-1.32,0L25.7,23.58l-1.11,1.11a.92.92,0,0,1-1.32,0l-.29-.3a.91.91,0,0,1,0-1.31L24.09,22,23,20.85a.92.92,0,0,1,0-1.32l.29-.3a.94.94,0,0,1,1.32,0l1.11,1.12,1.12-1.12a.94.94,0,0,1,1.32,0l.29.3a.92.92,0,0,1,0,1.32L27.32,22Z"/><path class="cls-2" d="M1.5,25.89h5"/><path class="cls-2" d="M45.8,26h5"/><path class="cls-2" d="M40.35,11.84l3.44-3.52"/><path class="cls-2" d="M11.62,11.84,8.37,8.51"/><path class="cls-2" d="M25.9,6.1V1.5"/><path class="cls-1" d="M22.53,57.08a3.48,3.48,0,0,0,7-.11Z"/></g></g></svg>