<svg xmlns="http://www.w3.org/2000/svg" viewBox="0 0 21.98 20.47"><defs><style>.cls-1{fill:#fff;}</style></defs><g id="Layer_2" data-name="Layer 2"><g id="Layer_1-2" data-name="Layer 1"><path class="cls-1" d="M10.71,10.47a10.42,10.42,0,0,1-3,7,10.46,10.46,0,0,1-7,3,9.46,9.46,0,0,1,3-8A9.16,9.16,0,0,1,10.71,10.47Z"/><path class="cls-1" d="M10.7,10A10.48,10.48,0,0,1,3.5,7.48,10.44,10.44,0,0,1,0,.72,9.44,9.44,0,0,1,8.2,3.13,9.24,9.24,0,0,1,10.7,10Z"/><path class="cls-1" d="M11.27,10a10.47,10.47,0,0,1,3-7,10.46,10.46,0,0,1,7-3,9.47,9.47,0,0,1-3,8A9.15,9.15,0,0,1,11.27,10Z"/><path class="cls-1" d="M11.28,10.4A10.26,10.26,0,0,1,22,19.65a9.42,9.42,0,0,1-8.19-2.41A9.19,9.19,0,0,1,11.28,10.4Z"/></g></g></svg>