<svg xmlns="http://www.w3.org/2000/svg" viewBox="0 0 48.3 45.21"><defs><style>.cls-1{fill:#f0e4a0;}.cls-2{fill:#81be7b;}.cls-3{fill:#ed7558;}</style></defs><g id="Layer_2" data-name="Layer 2"><g id="Layer_1-2" data-name="Layer 1"><path class="cls-1" d="M36.75,10.88a10.47,10.47,0,0,1-3,7,10.47,10.47,0,0,1-7,3,9.47,9.47,0,0,1,3-8A9.15,9.15,0,0,1,36.75,10.88Z"/><path class="cls-1" d="M36.74,10.38a10.39,10.39,0,0,1-7.2-2.48A10.45,10.45,0,0,1,26,1.13a9.45,9.45,0,0,1,8.19,2.42A9.19,9.19,0,0,1,36.74,10.38Z"/><path class="cls-1" d="M37.31,10.41a10.37,10.37,0,0,1,3-7,10.46,10.46,0,0,1,7-3,9.46,9.46,0,0,1-3,8A9.11,9.11,0,0,1,37.31,10.41Z"/><path class="cls-1" d="M37.32,10.82A10.24,10.24,0,0,1,48,20.07a9.46,9.46,0,0,1-8.2-2.42A9.21,9.21,0,0,1,37.32,10.82Z"/><path class="cls-2" d="M37,35.21a10.25,10.25,0,0,1-10,10,9.42,9.42,0,0,1,3-8A9.15,9.15,0,0,1,37,35.21Z"/><path class="cls-2" d="M37,34.71a10.25,10.25,0,0,1-10.69-9.25,9.43,9.43,0,0,1,8.19,2.41A9.15,9.15,0,0,1,37,34.71Z"/><path class="cls-2" d="M37.58,34.74a10.25,10.25,0,0,1,10-10,9.42,9.42,0,0,1-3,8A9.15,9.15,0,0,1,37.58,34.74Z"/><path class="cls-2" d="M37.6,35.14a10.26,10.26,0,0,1,10.7,9.25A9.44,9.44,0,0,1,40.1,42,9.12,9.12,0,0,1,37.6,35.14Z"/><path class="cls-3" d="M10.71,10.47a10.42,10.42,0,0,1-3,7,10.46,10.46,0,0,1-7,3,9.46,9.46,0,0,1,3-8A9.16,9.16,0,0,1,10.71,10.47Z"/><path class="cls-3" d="M10.7,10A10.48,10.48,0,0,1,3.5,7.48,10.44,10.44,0,0,1,0,.72,9.44,9.44,0,0,1,8.2,3.13,9.24,9.24,0,0,1,10.7,10Z"/><path class="cls-3" d="M11.27,10a10.47,10.47,0,0,1,3-7,10.46,10.46,0,0,1,7-3,9.47,9.47,0,0,1-3,8A9.15,9.15,0,0,1,11.27,10Z"/><path class="cls-3" d="M11.28,10.4A10.26,10.26,0,0,1,22,19.65a9.42,9.42,0,0,1-8.19-2.41A9.19,9.19,0,0,1,11.28,10.4Z"/></g></g></svg>