<svg xmlns="http://www.w3.org/2000/svg" viewBox="0 0 16.94 24.26"><defs><style>.cls-1{fill:#ed7558;}</style></defs><g id="Layer_2" data-name="Layer 2"><g id="Layer_1-2" data-name="Layer 1"><path class="cls-1" d="M8.47,0A8.47,8.47,0,0,0,0,8.47,8.92,8.92,0,0,0,.08,9.63l0,.18a8.47,8.47,0,0,0,16.73,0,1.1,1.1,0,0,0,0-.18,7.45,7.45,0,0,0,.08-1.16A8.47,8.47,0,0,0,8.47,0Zm0,12.11A3.56,3.56,0,1,1,12,8.55a3.86,3.86,0,0,1-.16,1.08A3.57,3.57,0,0,1,8.47,12.11Z"/><path class="cls-1" d="M16.94,9.63l-.1.18-3,5.24L8.47,24.26l-5.33-9.2-3-5.25L0,9.63H5.08a3.56,3.56,0,0,0,6.79,0Z"/></g></g></svg>