<svg xmlns="http://www.w3.org/2000/svg" viewBox="0 0 32.86 47.05"><defs><style>.cls-1{fill:#6d6f71;}</style></defs><g id="Layer_2" data-name="Layer 2"><g id="Layer_1-2" data-name="Layer 1"><path class="cls-1" d="M16.43,0A16.43,16.43,0,0,0,0,16.43a15,15,0,0,0,.16,2.24c0,.12,0,.24,0,.36a16.43,16.43,0,0,0,32.44,0c0-.12,0-.24.05-.36a15,15,0,0,0,.16-2.24A16.42,16.42,0,0,0,16.43,0Zm6.08,25-6.08-3.2L10.35,25l1.07-6.28.09-.5L6.59,13.38l6.8-1,3-6.16,3,6.16,6.8,1-4.92,4.79.09.5Z"/><polygon class="cls-1" points="32.86 18.67 32.65 19.03 26.76 29.2 16.43 47.05 6.1 29.2 0.21 19.03 0 18.67 11.42 18.67 10.35 24.95 16.43 21.75 22.51 24.95 21.44 18.67 32.86 18.67"/></g></g></svg>