<svg xmlns="http://www.w3.org/2000/svg" viewBox="0 0 48.69 38.76"><defs><style>.cls-1{fill:#6d6f71;}.cls-2{fill:none;stroke:#6d6f71;stroke-linecap:round;stroke-linejoin:round;stroke-width:3px;}</style></defs><g id="Layer_2" data-name="Layer 2"><g id="Layer_1-2" data-name="Layer 1"><path class="cls-1" d="M12.37,0a6.93,6.93,0,0,0,0,13.86A6.94,6.94,0,0,0,19.3,6.93,6.93,6.93,0,0,0,12.37,0Zm0,9.91a2.93,2.93,0,0,1-2.78-2A3.23,3.23,0,0,1,9.46,7a2.91,2.91,0,1,1,2.91,2.92Z"/><path class="cls-1" d="M18.5,9.26l-1.77,3.05-3.55,6.15a.94.94,0,0,1-1.61,0L8,12.31,6.25,9.26a.92.92,0,0,1,.8-1.39H9.59a2.91,2.91,0,0,0,5.56,0H17.7A.93.93,0,0,1,18.5,9.26Z"/><path class="cls-2" d="M12.61,18.52l12.18-.12a3.84,3.84,0,0,1,2.81,3.35,3.89,3.89,0,0,1-3.08,4L7.2,25.5a6,6,0,0,0-5.51,4.19,6,6,0,0,0,3.9,7.11l33.88.46"/><path class="cls-1" d="M39.47,12.23a9.21,9.21,0,1,0,9.22,9.21A9.22,9.22,0,0,0,39.47,12.23Zm0,13.18a3.87,3.87,0,0,1-3.69-2.71,3.82,3.82,0,0,1-.19-1.17,3.88,3.88,0,0,1,7.76,0,3.92,3.92,0,0,1-3.88,3.88Z"/><path class="cls-1" d="M47.62,24.55,45.27,28.6l-4.73,8.19a1.24,1.24,0,0,1-2.13,0L33.67,28.6l-2.34-4.05a1.23,1.23,0,0,1,1.06-1.85h3.39a3.87,3.87,0,0,0,7.38,0h3.39A1.23,1.23,0,0,1,47.62,24.55Z"/></g></g></svg>